<svg width="18" height="18" viewBox="0 0 18 18" fill="none" xmlns="http://www.w3.org/2000/svg">
<path d="M9 13.5C12.5899 13.5 15.5 10.5899 15.5 7C15.5 3.41015 12.5899 0.5 9 0.5C5.41015 0.5 2.5 3.41015 2.5 7C2.5 10.5899 5.41015 13.5 9 13.5Z" fill="#3A0DEE" stroke="white" stroke-linecap="round" stroke-linejoin="round"/>
<g filter="url(#filter0_d_1602_46)">
<path d="M6.64586 7.63636H7.22541L7.7112 8.27557L7.83904 8.44602L8.56348 9.40909H7.98393L7.50666 8.76989L7.38734 8.60795L6.64586 7.63636ZM8.74245 6.81818C8.74245 7.27841 8.65936 7.67614 8.49316 8.01136C8.32697 8.34659 8.09899 8.60511 7.80922 8.78693C7.51944 8.96875 7.18848 9.05966 6.81632 9.05966C6.44416 9.05966 6.11319 8.96875 5.82342 8.78693C5.53365 8.60511 5.30566 8.34659 5.13947 8.01136C4.97328 7.67614 4.89018 7.27841 4.89018 6.81818C4.89018 6.35795 4.97328 5.96023 5.13947 5.625C5.30566 5.28977 5.53365 5.03125 5.82342 4.84943C6.11319 4.66761 6.44416 4.5767 6.81632 4.5767C7.18848 4.5767 7.51944 4.66761 7.80922 4.84943C8.09899 5.03125 8.32697 5.28977 8.49316 5.625C8.65936 5.96023 8.74245 6.35795 8.74245 6.81818ZM8.23109 6.81818C8.23109 6.44034 8.16788 6.12145 8.04146 5.86151C7.91646 5.60156 7.74672 5.40483 7.53223 5.27131C7.31916 5.13778 7.08052 5.07102 6.81632 5.07102C6.55211 5.07102 6.31277 5.13778 6.09828 5.27131C5.88521 5.40483 5.71547 5.60156 5.58904 5.86151C5.46404 6.12145 5.40154 6.44034 5.40154 6.81818C5.40154 7.19602 5.46404 7.51491 5.58904 7.77486C5.71547 8.0348 5.88521 8.23153 6.09828 8.36506C6.31277 8.49858 6.55211 8.56534 6.81632 8.56534C7.08052 8.56534 7.31916 8.49858 7.53223 8.36506C7.74672 8.23153 7.91646 8.0348 8.04146 7.77486C8.16788 7.51491 8.23109 7.19602 8.23109 6.81818ZM13.1423 6H12.6139C12.5827 5.84801 12.528 5.71449 12.4498 5.59943C12.3731 5.48438 12.2794 5.38778 12.1686 5.30966C12.0592 5.23011 11.9378 5.17045 11.8042 5.13068C11.6707 5.09091 11.5315 5.07102 11.3866 5.07102C11.1224 5.07102 10.8831 5.13778 10.6686 5.27131C10.4555 5.40483 10.2858 5.60156 10.1594 5.86151C10.0344 6.12145 9.97186 6.44034 9.97186 6.81818C9.97186 7.19602 10.0344 7.51491 10.1594 7.77486C10.2858 8.0348 10.4555 8.23153 10.6686 8.36506C10.8831 8.49858 11.1224 8.56534 11.3866 8.56534C11.5315 8.56534 11.6707 8.54545 11.8042 8.50568C11.9378 8.46591 12.0592 8.40696 12.1686 8.32884C12.2794 8.24929 12.3731 8.15199 12.4498 8.03693C12.528 7.92045 12.5827 7.78693 12.6139 7.63636H13.1423C13.1025 7.85937 13.0301 8.05895 12.925 8.23509C12.8199 8.41122 12.6892 8.56108 12.5329 8.68466C12.3767 8.80682 12.2013 8.89986 12.0067 8.96378C11.8135 9.0277 11.6068 9.05966 11.3866 9.05966C11.0145 9.05966 10.6835 8.96875 10.3937 8.78693C10.104 8.60511 9.87598 8.34659 9.70978 8.01136C9.54359 7.67614 9.46049 7.27841 9.46049 6.81818C9.46049 6.35795 9.54359 5.96023 9.70978 5.625C9.87598 5.28977 10.104 5.03125 10.3937 4.84943C10.6835 4.66761 11.0145 4.5767 11.3866 4.5767C11.6068 4.5767 11.8135 4.60866 12.0067 4.67259C12.2013 4.73651 12.3767 4.83026 12.5329 4.95384C12.6892 5.07599 12.8199 5.22514 12.925 5.40128C13.0301 5.57599 13.1025 5.77557 13.1423 6Z" fill="white"/>
</g>
<defs>
<filter id="filter0_d_1602_46" x="0.890137" y="4.57666" width="16.2522" height="12.8325" filterUnits="userSpaceOnUse" color-interpolation-filters="sRGB">
<feFlood flood-opacity="0" result="BackgroundImageFix"/>
<feColorMatrix in="SourceAlpha" type="matrix" values="0 0 0 0 0 0 0 0 0 0 0 0 0 0 0 0 0 0 127 0" result="hardAlpha"/>
<feOffset dy="4"/>
<feGaussianBlur stdDeviation="2"/>
<feComposite in2="hardAlpha" operator="out"/>
<feColorMatrix type="matrix" values="0 0 0 0 0 0 0 0 0 0 0 0 0 0 0 0 0 0 0.25 0"/>
<feBlend mode="normal" in2="BackgroundImageFix" result="effect1_dropShadow_1602_46"/>
<feBlend mode="normal" in="SourceGraphic" in2="effect1_dropShadow_1602_46" result="shape"/>
</filter>
</defs>
</svg>
