<svg width="17" height="18" viewBox="0 0 17 18" fill="none" xmlns="http://www.w3.org/2000/svg">
<path d="M8.5 14C12.0899 14 15 11.0899 15 7.5C15 3.91015 12.0899 1 8.5 1C4.91015 1 2 3.91015 2 7.5C2 11.0899 4.91015 14 8.5 14Z" fill="#EE0D0D" stroke="white" stroke-linecap="round" stroke-linejoin="round"/>
<g filter="url(#filter0_d_1603_16)">
<path d="M6.14586 8.13636H6.72541L7.2112 8.77557L7.33904 8.94602L8.06348 9.90909H7.48393L7.00666 9.26989L6.88734 9.10795L6.14586 8.13636ZM8.24245 7.31818C8.24245 7.77841 8.15936 8.17614 7.99316 8.51136C7.82697 8.84659 7.59899 9.10511 7.30922 9.28693C7.01944 9.46875 6.68848 9.55966 6.31632 9.55966C5.94416 9.55966 5.61319 9.46875 5.32342 9.28693C5.03365 9.10511 4.80566 8.84659 4.63947 8.51136C4.47328 8.17614 4.39018 7.77841 4.39018 7.31818C4.39018 6.85795 4.47328 6.46023 4.63947 6.125C4.80566 5.78977 5.03365 5.53125 5.32342 5.34943C5.61319 5.16761 5.94416 5.0767 6.31632 5.0767C6.68848 5.0767 7.01944 5.16761 7.30922 5.34943C7.59899 5.53125 7.82697 5.78977 7.99316 6.125C8.15936 6.46023 8.24245 6.85795 8.24245 7.31818ZM7.73109 7.31818C7.73109 6.94034 7.66788 6.62145 7.54146 6.36151C7.41646 6.10156 7.24672 5.90483 7.03223 5.77131C6.81916 5.63778 6.58052 5.57102 6.31632 5.57102C6.05211 5.57102 5.81277 5.63778 5.59828 5.77131C5.38521 5.90483 5.21547 6.10156 5.08904 6.36151C4.96404 6.62145 4.90154 6.94034 4.90154 7.31818C4.90154 7.69602 4.96404 8.01491 5.08904 8.27486C5.21547 8.5348 5.38521 8.73153 5.59828 8.86506C5.81277 8.99858 6.05211 9.06534 6.31632 9.06534C6.58052 9.06534 6.81916 8.99858 7.03223 8.86506C7.24672 8.73153 7.41646 8.5348 7.54146 8.27486C7.66788 8.01491 7.73109 7.69602 7.73109 7.31818ZM12.6423 6.5H12.1139C12.0827 6.34801 12.028 6.21449 11.9498 6.09943C11.8731 5.98438 11.7794 5.88778 11.6686 5.80966C11.5592 5.73011 11.4378 5.67045 11.3042 5.63068C11.1707 5.59091 11.0315 5.57102 10.8866 5.57102C10.6224 5.57102 10.3831 5.63778 10.1686 5.77131C9.95552 5.90483 9.78578 6.10156 9.65936 6.36151C9.53436 6.62145 9.47186 6.94034 9.47186 7.31818C9.47186 7.69602 9.53436 8.01491 9.65936 8.27486C9.78578 8.5348 9.95552 8.73153 10.1686 8.86506C10.3831 8.99858 10.6224 9.06534 10.8866 9.06534C11.0315 9.06534 11.1707 9.04545 11.3042 9.00568C11.4378 8.96591 11.5592 8.90696 11.6686 8.82884C11.7794 8.74929 11.8731 8.65199 11.9498 8.53693C12.028 8.42045 12.0827 8.28693 12.1139 8.13636H12.6423C12.6025 8.35937 12.5301 8.55895 12.425 8.73509C12.3199 8.91122 12.1892 9.06108 12.0329 9.18466C11.8767 9.30682 11.7013 9.39986 11.5067 9.46378C11.3135 9.5277 11.1068 9.55966 10.8866 9.55966C10.5145 9.55966 10.1835 9.46875 9.89373 9.28693C9.60396 9.10511 9.37598 8.84659 9.20978 8.51136C9.04359 8.17614 8.96049 7.77841 8.96049 7.31818C8.96049 6.85795 9.04359 6.46023 9.20978 6.125C9.37598 5.78977 9.60396 5.53125 9.89373 5.34943C10.1835 5.16761 10.5145 5.0767 10.8866 5.0767C11.1068 5.0767 11.3135 5.10866 11.5067 5.17259C11.7013 5.23651 11.8767 5.33026 12.0329 5.45384C12.1892 5.57599 12.3199 5.72514 12.425 5.90128C12.5301 6.07599 12.6025 6.27557 12.6423 6.5Z" fill="white"/>
</g>
<defs>
<filter id="filter0_d_1603_16" x="0.390137" y="5.07666" width="16.2522" height="12.8325" filterUnits="userSpaceOnUse" color-interpolation-filters="sRGB">
<feFlood flood-opacity="0" result="BackgroundImageFix"/>
<feColorMatrix in="SourceAlpha" type="matrix" values="0 0 0 0 0 0 0 0 0 0 0 0 0 0 0 0 0 0 127 0" result="hardAlpha"/>
<feOffset dy="4"/>
<feGaussianBlur stdDeviation="2"/>
<feComposite in2="hardAlpha" operator="out"/>
<feColorMatrix type="matrix" values="0 0 0 0 0 0 0 0 0 0 0 0 0 0 0 0 0 0 0.25 0"/>
<feBlend mode="normal" in2="BackgroundImageFix" result="effect1_dropShadow_1603_16"/>
<feBlend mode="normal" in="SourceGraphic" in2="effect1_dropShadow_1603_16" result="shape"/>
</filter>
</defs>
</svg>
